<svg xmlns="http://www.w3.org/2000/svg"
 xmlns:xlink="http://www.w3.org/1999/xlink"
 width="10px" height="19px"  viewBox="0 0 10 19">
<path fill-rule="evenodd"  fill="#ffffff"
 d="M7.9786377,1.9404297 C7.9786377,1.9404297 6.328018,1.9404297 6.328018,1.9404297 C6.328018,1.9404297 3.014862,1.692627 3.014862,5.1850586 C3.014862,5.931885 3.014862,6.991455 3.014862,6.991455 C3.014862,6.991455 1.0151062,6.991455 1.0151062,6.991455 C1.0151062,6.991455 1.0211945,8.998047 1.0211945,8.998047 C1.0211945,8.998047 3.0139313,8.998047 3.0139313,8.998047 C3.0139313,8.998047 2.9844818,17.011719 2.9844818,17.011719 C2.9844818,17.011719 6.013962,17.011719 6.013962,17.011719 C6.013962,17.011719 6.013962,9.029297 6.013962,9.029297 C6.013962,9.029297 7.7522125,8.998047 7.7522125,8.998047 C7.7522125,8.998047 8.376114,6.991455 8.376114,6.991455 C8.376114,6.991455 5.981613,6.991455 5.981613,6.991455 C5.981613,6.991455 5.981613,4.9265137 5.981613,4.9265137 C5.981613,4.9265137 5.95697,4.010498 7.0306244,4.010498 C7.0306244,4.010498 7.9686737,4.010498 7.9686737,4.010498 C7.9686737,4.010498 7.9786377,1.9404297 7.9786377,1.9404297 Z"/>
</svg>