<svg xmlns="http://www.w3.org/2000/svg"
 xmlns:xlink="http://www.w3.org/1999/xlink"
 width="19px" height="19px"  viewBox="0 0 19 19">
<path fill-rule="evenodd"  fill="#ffffff"
 d="M5.4640503,2.918213 C5.4640503,3.8920898 4.7641907,4.6086426 3.5675354,4.6086426 C2.4419556,4.6086426 1.6874084,3.8920898 1.6874084,2.918213 C1.6874084,1.9206543 2.4381714,1.2138672 3.5873413,1.2138672 C4.736786,1.2138672 5.440857,1.9206543 5.4640503,2.918213 ZM1.995697,17.01001 C1.995697,17.01001 1.995697,5.9870605 1.995697,5.9870605 C1.995697,5.9870605 5.006897,5.9870605 5.006897,5.9870605 C5.006897,5.9870605 5.006897,17.01001 5.006897,17.01001 C5.006897,17.01001 1.995697,17.01001 1.995697,17.01001 ZM7.015167,5.9870605 C7.015167,5.9870605 9.701508,5.9870605 9.701508,5.9870605 C9.701508,5.9870605 10.023285,7.109619 10.023285,7.109619 C10.467377,6.399414 11.429108,5.605713 13.250183,5.605713 C15.470795,5.605713 17.006042,6.900635 17.006042,10.095703 C17.006042,10.095703 17.006042,16.978516 17.006042,16.978516 C17.006042,16.978516 14.0065,16.978516 14.0065,16.978516 C14.0065,16.978516 14.0065,10.577393 14.0065,10.577393 C14.0065,9.1796875 13.040649,8.225586 11.819214,8.225586 C10.886475,8.225586 10.347534,8.8688965 10.1032715,9.490234 C10.014191,9.711914 9.991882,10.022949 9.991882,10.333496 C9.991882,10.333496 9.991882,16.978516 9.991882,16.978516 C9.991882,16.978516 7.015167,16.978516 7.015167,16.978516 C7.015167,16.978516 7.015167,5.9870605 7.015167,5.9870605 Z"/>
</svg>