<svg xmlns="http://www.w3.org/2000/svg"
 xmlns:xlink="http://www.w3.org/1999/xlink"
 width="20px" height="15px"  viewBox="0 0 20 15">
<path fill-rule="evenodd"  fill="#ffffff"
 d="M2.608673,2.1779785 C3.0961914,2.4482422 8.846863,6.1884766 9.097992,6.3273926 C9.349487,6.4665527 9.675049,6.5336914 10.003082,6.5336914 C10.331116,6.5336914 10.656586,6.4665527 10.908081,6.3273926 C11.15921,6.1884766 16.909882,2.4482422 17.3974,2.1779785 C17.885254,1.9077148 18.346954,1.0595703 17.450684,1.0595703 C17.450684,1.0595703 2.5552979,1.0595703 2.5552979,1.0595703 C1.659729,1.0595703 2.120819,1.9077148 2.608673,2.1779785 ZM17.604004,4.237793 C17.050049,4.536377 11.247192,8.205078 10.908081,8.387451 C10.568634,8.5703125 10.331116,8.59375 10.003082,8.59375 C9.675049,8.59375 9.4374695,8.5703125 9.097992,8.387451 C8.758881,8.205078 2.9563904,4.536377 2.4020996,4.237793 C2.0122375,4.028076 2.015503,4.27417 2.015503,4.463867 C2.015503,4.6538086 2.015503,12.019531 2.015503,12.019531 C2.015503,12.451172 2.5731506,13.00708 3.0059814,13.00708 C3.0059814,13.00708 17.000183,13.00708 17.000183,13.00708 C17.432922,13.00708 17.99057,12.451172 17.99057,12.019531 C17.99057,12.019531 17.99057,4.6538086 17.99057,4.463867 C17.99057,4.27417 17.994263,4.028076 17.604004,4.237793 Z"/>
</svg>