<svg xmlns="http://www.w3.org/2000/svg"
 xmlns:xlink="http://www.w3.org/1999/xlink"
 width="19px" height="18px"  viewBox="0 0 19 18">
<path fill-rule="evenodd"  fill="#ffffff"
 d="M17.984375,3.6555176 C17.35968,3.9367676 16.688904,4.126953 15.98468,4.212158 C16.703674,3.774414 17.255585,3.081543 17.515625,2.2563477 C16.842712,2.661621 16.097717,2.9558105 15.304901,3.1142578 C14.669739,2.427002 13.764832,1.9980469 12.763702,1.9980469 C10.841095,1.9980469 9.282318,3.5805664 9.282318,5.532959 C9.282318,5.8100586 9.312988,6.079834 9.3723755,6.338379 C6.4792786,6.191162 3.913269,4.7839355 2.1967468,2.6447754 C1.8970337,3.1672363 1.7251892,3.77417 1.7251892,4.422119 C1.7251892,5.6484375 2.3397522,6.7302246 3.2738342,7.364258 C2.7036743,7.3461914 2.1664429,7.187256 1.697052,6.9226074 C1.6967163,6.937256 1.6967163,6.95166 1.6967163,6.9665527 C1.6967163,8.6796875 2.8970337,10.108398 4.48938,10.433105 C4.1975403,10.51416 3.889923,10.557129 3.572113,10.557129 C3.3480835,10.557129 3.130066,10.535156 2.9172058,10.493652 C3.3603516,11.897949 4.646454,12.920654 6.1694946,12.94873 C4.977844,13.897217 3.4770813,14.462402 1.8458862,14.462402 C1.5648804,14.462402 1.2879028,14.4453125 1.015564,14.411865 C2.5558777,15.4157715 4.38562,16.000977 6.352173,16.000977 C12.755463,16.000977 16.257355,10.614014 16.257355,5.942871 C16.257355,5.789795 16.25409,5.637207 16.247223,5.4851074 C16.927368,4.9873047 17.517456,4.364502 17.984375,3.6555176 Z"/>
</svg>