<svg xmlns="http://www.w3.org/2000/svg" width="162" height="129"><path fill-rule="evenodd" fill="#487fbc" d="M96.199 57.69c1.62-.304 2.948-1.903 2.948-3.553v-8c0-1.65-1.327-3.248-2.948-3.553l-6.42-1.203c-1.621-.305-3.373-1.834-3.894-3.4l-1.858-4.536c-.74-1.475-.581-3.796.35-5.158l3.683-5.382c.932-1.361.74-3.43-.427-4.597l-5.658-5.657c-1.166-1.167-3.235-1.36-4.597-.427l-5.313 3.635c-1.361.932-3.679 1.082-5.148.333l-4.646-1.935c-1.565-.526-3.093-2.284-3.396-3.905L57.7 4.086c-.304-1.622-1.903-2.95-3.553-2.95h-8c-1.65 0-3.249 1.328-3.553 2.95l-1.168 6.225c-.303 1.622-1.834 3.374-3.4 3.893l-4.719 1.945c-1.473.744-3.792.59-5.153-.342l-5.239-3.584c-1.36-.931-3.43-.739-4.596.428l-5.657 5.657c-1.167 1.167-1.359 3.236-.427 4.598l3.59 5.25c.932 1.36 1.088 3.681.344 5.154l-1.934 4.703c-.52 1.566-2.273 3.096-3.894 3.4l-6.246 1.171c-1.62.304-2.948 1.903-2.948 3.553v8c0 1.65 1.327 3.25 2.948 3.553l6.246 1.171c1.621.304 3.373 1.834 3.894 3.4l1.935 4.704c.744 1.473.588 3.793-.343 5.155l-3.591 5.248c-.932 1.362-.74 3.43.427 4.597l5.658 5.659c1.167 1.166 3.235 1.358 4.596.426l5.238-3.583c1.361-.932 3.68-1.085 5.153-.342l4.718 1.944c1.566.52 3.097 2.27 3.4 3.893l1.168 6.226c.304 1.622 1.903 2.95 3.553 2.95h8c1.65 0 3.249-1.328 3.553-2.95l1.175-6.266c.303-1.622 1.831-3.38 3.396-3.906l4.644-1.934c1.47-.75 3.788-.6 5.149.332l5.314 3.636c1.362.932 3.43.74 4.597-.426l5.658-5.659c1.167-1.167 1.359-3.235.427-4.596l-3.683-5.383c-.931-1.36-1.09-3.682-.35-5.157l1.858-4.535c.52-1.566 2.273-3.097 3.894-3.4l6.42-1.204zm-46.135 5.419c-7.148 0-12.94-5.808-12.94-12.972s5.792-12.972 12.94-12.972c7.147 0 12.94 5.808 12.94 12.972s-5.793 12.972-12.94 12.972zm99.895 32.482c.228-1.633 1.632-3.555 3.12-4.268l4.737-2.271c1.488-.714 2.355-2.602 1.928-4.196l-1.88-7.02c-.427-1.593-2.122-2.794-3.768-2.668l-5.852.449c-1.646.126-3.761-.745-4.702-1.935l-.999-.999c-1.627-1.627-2.82-2.438-2.82-2.438-1.366-.926-2.38-3.03-2.254-4.675l.309-4.038c.126-1.645-1.074-3.341-2.668-3.768l-7.02-1.881c-1.593-.427-3.481.441-4.195 1.93l-2.161 4.506c-.714 1.488-2.618 2.988-4.232 3.335l-3.944 1.27c-1.518.645-3.875.412-5.236-.52l-3.516-2.406c-1.361-.932-3.43-.74-4.597.428l-5.138 5.138c-1.167 1.168-1.359 3.236-.427 4.598l2.835 4.144c.932 1.362 1.263 3.755.736 5.318l-.753 3.032c-.254 1.63-1.677 3.548-3.166 4.262l-4.163 1.996c-1.487.714-2.355 2.602-1.928 4.195l1.88 7.02c.427 1.593 2.122 2.795 3.768 2.668l4.49-.344c1.646-.126 3.79.86 4.765 2.19 0 0 .36.49 1.673 1.804 1.231 1.231 1.54 1.462 1.54 1.462 1.324.986 2.302 3.14 2.177 4.784l-.338 4.412c-.126 1.645 1.074 3.34 2.668 3.767l7.02 1.881c1.594.427 3.482-.44 4.194-1.928l1.854-3.865c.714-1.487 2.633-2.906 4.265-3.153l4.173-1.067c1.554-.555 3.94-.247 5.301.685l5.107 3.493c1.361.932 3.43.74 4.596-.426l5.139-5.139c1.167-1.166 1.358-3.235.427-4.597l-3.46-5.058c-.932-1.362-1.24-3.747-.684-5.3l1.2-4.807zm-20.367 1.904c-3.267 3.267-8.57 3.261-11.846-.014-3.275-3.276-3.282-8.578-.013-11.846 3.267-3.267 8.571-3.263 11.846.013 3.274 3.276 3.28 8.58.013 11.847z"/></svg>