<svg xmlns="http://www.w3.org/2000/svg"
 xmlns:xlink="http://www.w3.org/1999/xlink"
 width="162px" height="129px"  viewBox="0 0 162 129">
<path fill-rule="evenodd"  fill="#487fbc"
 d="M96.19867,57.68982 C97.81976,57.38617 99.14691,55.786804 99.14691,54.137146 C99.14691,54.137146 99.14691,46.136963 99.14691,46.136963 C99.14691,44.487305 97.81976,42.88867 96.19867,42.58429 C96.19867,42.58429 89.77875,41.380737 89.77875,41.380737 C88.157715,41.076355 86.4057,39.54712 85.885254,37.980774 C85.885254,37.980774 84.026855,33.44519 84.026855,33.44519 C83.2876,31.970276 83.44574,29.648743 84.37738,28.287292 C84.37738,28.287292 88.06,22.90503 88.06,22.90503 C88.99164,21.543945 88.799255,19.474976 87.63324,18.308472 C87.63324,18.308472 81.97504,12.650818 81.97504,12.650818 C80.80902,11.484375 78.739746,11.291931 77.37842,12.224182 C77.37842,12.224182 72.06488,15.859497 72.06488,15.859497 C70.70361,16.79132 68.38617,16.940796 66.916504,16.191772 C66.916504,16.191772 62.270996,14.257202 62.270996,14.257202 C60.706482,13.731018 59.17816,11.973389 58.87451,10.351624 C58.87451,10.351624 57.699646,4.0856323 57.699646,4.0856323 C57.395996,2.4638672 55.797363,1.1369019 54.14691,1.1369019 C54.14691,1.1369019 46.14691,1.1369019 46.14691,1.1369019 C44.496582,1.1369019 42.89795,2.4638672 42.594116,4.0856323 C42.594116,4.0856323 41.42621,10.311279 41.42621,10.311279 C41.12256,11.933411 39.592285,13.68512 38.02588,14.204285 C38.02588,14.204285 33.307068,16.148804 33.307068,16.148804 C31.834473,16.8927 29.515076,16.739197 28.153687,15.807007 C28.153687,15.807007 22.915466,12.22345 22.915466,12.22345 C21.5542,11.291565 19.485779,11.484009 18.318909,12.650818 C18.318909,12.650818 12.66156,18.308105 12.66156,18.308105 C11.494568,19.474976 11.303162,21.543945 12.234863,22.905762 C12.234863,22.905762 15.825684,28.15509 15.825684,28.15509 C16.757263,29.516907 16.912537,31.837036 16.169373,33.31006 C16.169373,33.31006 14.234924,38.01306 14.234924,38.01306 C13.714355,39.57904 11.962341,41.109375 10.341248,41.413025 C10.341248,41.413025 4.095093,42.58429 4.095093,42.58429 C2.47406,42.888306 1.1469116,44.487305 1.1469116,46.136963 C1.1469116,46.136963 1.1469116,54.137146 1.1469116,54.137146 C1.1469116,55.786804 2.47406,57.38617 4.095093,57.68982 C4.095093,57.68982 10.341248,58.86145 10.341248,58.86145 C11.962341,59.1651 13.714355,60.695435 14.234924,62.260986 C14.234924,62.260986 16.17035,66.96515 16.17035,66.96515 C16.913574,68.43817 16.75824,70.7583 15.826599,72.12012 C15.826599,72.12012 12.235718,77.36835 12.235718,77.36835 C11.304138,78.7298 11.495544,80.7984 12.662537,81.96527 C12.662537,81.96527 18.3208,87.62366 18.3208,87.62366 C19.487732,88.789734 21.556152,88.98218 22.91742,88.05029 C22.91742,88.05029 28.154724,84.4671 28.154724,84.4671 C29.515991,83.53528 31.83545,83.381775 33.308044,84.125305 C33.308044,84.125305 38.02588,86.068726 38.02588,86.068726 C39.592285,86.58826 41.12256,88.3396 41.42621,89.96173 C41.42621,89.96173 42.594116,96.18848 42.594116,96.18848 C42.89795,97.81024 44.496582,99.13721 46.14691,99.13721 C46.14691,99.13721 54.14691,99.13721 54.14691,99.13721 C55.797363,99.13721 57.395996,97.81024 57.699646,96.18848 C57.699646,96.18848 58.87451,89.92175 58.87451,89.92175 C59.17816,88.29993 60.706482,86.54236 62.270996,86.016174 C62.270996,86.016174 66.91547,84.08197 66.91547,84.08197 C68.38519,83.33258 70.702576,83.48236 72.0639,84.414246 C72.0639,84.414246 77.37842,88.05029 77.37842,88.05029 C78.739746,88.98218 80.808105,88.789734 81.97504,87.62366 C81.97504,87.62366 87.63324,81.96527 87.63324,81.96527 C88.80023,80.7984 88.99164,78.7298 88.06,77.36871 C88.06,77.36871 84.37738,71.98645 84.37738,71.98645 C83.44574,70.62537 83.2876,68.3042 84.026855,66.82892 C84.026855,66.82892 85.885254,62.2937 85.885254,62.2937 C86.4057,60.727722 88.157715,59.197388 89.77875,58.893738 C89.77875,58.893738 96.19867,57.68982 96.19867,57.68982 ZM50.063965,63.108765 C42.916443,63.108765 37.123474,57.300964 37.123474,50.13684 C37.123474,42.973145 42.916443,37.165283 50.063965,37.165283 C57.211365,37.165283 63.004333,42.973145 63.004333,50.13684 C63.004333,57.300964 57.211365,63.108765 50.063965,63.108765 ZM149.95947,95.59149 C150.18695,93.95758 151.59131,92.036255 153.07855,91.32318 C153.07855,91.32318 157.8158,89.05151 157.8158,89.05151 C159.30414,88.3385 160.17139,86.450195 159.7445,84.85632 C159.7445,84.85632 157.86377,77.83685 157.86377,77.83685 C157.43695,76.24298 155.74164,75.04199 154.09619,75.168335 C154.09619,75.168335 148.24365,75.61664 148.24365,75.61664 C146.59808,75.743286 144.48291,74.872375 143.54242,73.68201 C143.54242,73.68201 143.54242,73.68201 142.54346,72.68298 C140.91644,71.05609 139.72217,70.24536 139.72217,70.24536 C138.35687,69.31903 137.3432,67.21478 137.46912,65.569885 C137.46912,65.569885 137.77777,61.5318 137.77777,61.5318 C137.90381,59.886536 136.70355,58.190613 135.1098,57.763977 C135.1098,57.763977 128.09027,55.882996 128.09027,55.882996 C126.49652,55.45636 124.60889,56.323975 123.89496,57.812073 C123.89496,57.812073 121.73389,62.31903 121.73389,62.31903 C121.01996,63.806763 119.1156,65.30701 117.50232,65.653625 C117.50232,65.653625 113.558105,66.92401 113.558105,66.92401 C112.03955,67.56946 109.683105,67.33557 108.32172,66.40375 C108.32172,66.40375 104.80621,63.998413 104.80621,63.998413 C103.44476,63.066223 101.376465,63.258606 100.20941,64.42584 C100.20941,64.42584 95.07074,69.56427 95.07074,69.56427 C93.90381,70.73151 93.7124,72.80011 94.64392,74.16193 C94.64392,74.16193 97.479004,78.305725 97.479004,78.305725 C98.41058,79.66754 98.74164,82.0611 98.21527,83.624146 C98.21527,83.624146 97.46234,86.65619 97.46234,86.65619 C97.208435,88.28674 95.78467,90.203735 94.29639,90.91821 C94.29639,90.91821 90.13324,92.91412 90.13324,92.91412 C88.645996,93.62787 87.77771,95.5155 88.20453,97.109314 C88.20453,97.109314 90.08545,104.128784 90.08545,104.128784 C90.51221,105.72229 92.20746,106.923706 93.85297,106.79736 C93.85297,106.79736 98.3432,106.45337 98.3432,106.45337 C99.98877,106.32703 102.1322,107.31287 103.10785,108.64343 C103.10785,108.64343 103.467224,109.1333 104.78076,110.44653 C106.01221,111.6781 106.32178,111.90906 106.32178,111.90906 C107.64496,112.89526 108.62341,115.048584 108.49762,116.69348 C108.49762,116.69348 108.15967,121.10498 108.15967,121.10498 C108.03369,122.74988 109.233826,124.445435 110.827576,124.87244 C110.827576,124.87244 117.84808,126.75342 117.84808,126.75342 C119.44183,127.180176 121.32953,126.3125 122.04242,124.82471 C122.04242,124.82471 123.895935,120.96033 123.895935,120.96033 C124.609924,119.47266 126.52875,118.05383 128.16052,117.807495 C128.16052,117.807495 132.33447,116.74011 132.33447,116.74011 C133.88818,116.18506 136.27386,116.49304 137.6352,117.42493 C137.6352,117.42493 142.74164,120.91846 142.74164,120.91846 C144.10297,121.85034 146.17133,121.65796 147.33838,120.49182 C147.33838,120.49182 152.47705,115.35303 152.47705,115.35303 C153.64392,114.18652 153.83545,112.11755 152.90375,110.75574 C152.90375,110.75574 149.44391,105.698 149.44391,105.698 C148.51208,104.33624 148.20459,101.95111 148.76025,100.39728 C148.76025,100.39728 149.95947,95.59149 149.95947,95.59149 ZM129.59229,97.49451 C126.324646,100.76227 121.02191,100.75604 117.745605,97.480896 C114.47113,94.205444 114.464355,88.90283 117.73291,85.63507 C121.00049,82.367676 126.3042,82.37244 129.57855,85.64758 C132.85297,88.92413 132.85986,94.227844 129.59229,97.49451 Z"/>
</svg>