<svg xmlns="http://www.w3.org/2000/svg" width="20" height="15"><path fill-rule="evenodd" fill="#fff" d="M2.609 2.178c.487.27 6.238 4.01 6.489 4.15.251.139.577.206.905.206.328 0 .654-.067.905-.207.251-.139 6.002-3.879 6.49-4.149.487-.27.949-1.118.053-1.118H2.555c-.895 0-.434.848.054 1.118zm14.995 2.06c-.554.298-6.357 3.967-6.696 4.15-.34.182-.577.206-.905.206-.328 0-.566-.024-.905-.207-.34-.182-6.142-3.85-6.696-4.15-.39-.209-.386.037-.386.227v7.556c0 .431.557.987.99.987H17c.433 0 .99-.556.99-.987V4.464c0-.19.004-.436-.386-.226z"/></svg>