<svg xmlns="http://www.w3.org/2000/svg" width="19" height="18"><path fill-rule="evenodd" fill="#fff" d="M17.984 3.656a6.872 6.872 0 01-2 .556 3.538 3.538 0 001.532-1.956c-.673.406-1.418.7-2.211.858a3.452 3.452 0 00-2.541-1.116c-1.923 0-3.482 1.583-3.482 3.535 0 .277.031.547.09.805-2.893-.147-5.459-1.554-7.175-3.693-.3.522-.472 1.13-.472 1.777 0 1.226.615 2.308 1.549 2.942a3.426 3.426 0 01-1.577-.441v.044c0 1.713 1.2 3.141 2.792 3.466a3.423 3.423 0 01-1.572.06c.443 1.405 1.73 2.428 3.252 2.456a6.916 6.916 0 01-5.153 1.463A9.737 9.737 0 006.352 16c6.403 0 9.905-5.387 9.905-10.058 0-.153-.003-.306-.01-.458a7.128 7.128 0 001.737-1.83z"/></svg>